<svg id="Layer_5" enable-background="new 0 0 64 64" height="512" viewBox="0 0 64 64" width="512" xmlns="http://www.w3.org/2000/svg"><g><g><path d="m49.394 16.41c-.411-1.561-1.032-3.057-1.852-4.46l1.231-2.461-5.263-5.263-2.46 1.232c-1.403-.819-2.899-1.44-4.46-1.852l-.869-2.606h-7.441l-.87 2.606c-1.561.411-3.057 1.032-4.46 1.852l-2.461-1.231-5.263 5.263 1.231 2.461c-.819 1.403-1.44 2.899-1.852 4.46l-2.605.868v7.441l2.606.869c.411 1.561 1.032 3.057 1.852 4.46l-1.231 2.461 5.263 5.263 2.461-1.231c1.403.819 2.899 1.44 4.46 1.852l.868 2.606h7.441l.869-2.606c1.561-.411 3.057-1.032 4.46-1.852l2.461 1.231 5.263-5.263-1.231-2.461c.819-1.403 1.44-2.899 1.852-4.46l2.606-.868v-7.441zm-17.394 15.59c-6.075 0-11-4.925-11-11s4.925-11 11-11 11 4.925 11 11-4.925 11-11 11z" fill="#f0bc5e"/></g><g><path d="m49 48h6v4h-6z" fill="#f0bc5e"/></g><g><path d="m9 48h6v4h-6z" fill="#f0bc5e"/></g><g><path d="m32 15c-3.309 0-6 2.691-6 6s2.691 6 6 6 6-2.691 6-6-2.691-6-6-6zm0 10c-2.206 0-4-1.794-4-4s1.794-4 4-4 4 1.794 4 4-1.794 4-4 4z"/><path d="m31 5h2v2h-2z"/><path d="m20.394 9.394h2v2h-2z" transform="matrix(.707 -.707 .707 .707 -1.083 18.172)"/><path d="m16 20h2v2h-2z"/><path d="m20.394 30.607h2v2h-2z" transform="matrix(.707 -.707 .707 .707 -16.083 24.385)"/><path d="m31 35h2v2h-2z"/><path d="m41.607 30.607h2v2h-2z" transform="matrix(.707 -.707 .707 .707 -9.87 39.385)"/><path d="m46 20h2v2h-2z"/><path d="m41.607 9.394h2v2h-2z" transform="matrix(.707 -.707 .707 .707 5.13 33.172)"/><path d="m32 9c-6.617 0-12 5.383-12 12s5.383 12 12 12 12-5.383 12-12-5.383-12-12-12zm0 22c-5.514 0-10-4.486-10-10s4.486-10 10-10 10 4.486 10 10-4.486 10-10 10z"/><path d="m59 45v-2h-6v-13.5l-3.902-2.926c-.214.657-.471 1.299-.761 1.928l2.663 1.998v12.5h-6v2h-4v16h7.021c.939 1.246 2.416 2 3.979 2s3.04-.754 3.979-2h7.021v-16zm-12 0h10v10h-10zm14 14h-6.13l-.289.497c-.548.941-1.513 1.503-2.581 1.503s-2.033-.562-2.581-1.503l-.289-.497h-6.13v-12h2v10h14v-10h2z"/><path d="m49 47h6v2h-6z"/><path d="m49 51h6v2h-6z"/><path d="m19 43h-6v-12.5l2.663-1.998c-.29-.629-.547-1.271-.761-1.928l-3.902 2.926v13.5h-6v2h-4v16h7.021c.939 1.246 2.416 2 3.979 2s3.04-.754 3.979-2h7.021v-16h-4zm-12 2h10v10h-10zm14 2v12h-6.13l-.289.497c-.548.941-1.513 1.503-2.581 1.503s-2.033-.562-2.581-1.503l-.289-.497h-6.13v-12h2v10h14v-10z"/><path d="m9 47h6v2h-6z"/><path d="m9 51h6v2h-6z"/></g><g><path d="m32 44-6 6h2v12h8v-12h2z" fill="#f0bc5e"/></g></g></svg>